<svg xmlns="http://www.w3.org/2000/svg" viewBox="0 0 419.8 42.45" class="mediaIcon_3-IUU"><g data-name="Layer 2"><path class="androidcentral_svg__cls-1" d="M33.46 24.88V6.24s-14.64-.18-17.17 0S-.18 5.35 0 24.09s15.53 17.84 15.53 17.84c19.44.35 17.93-17.05 17.93-17.05zm-15.44 10h-3.29s-7.63-.44-7.63-9v-3.3s-.36-9.5 8-9.5h11.19v12.25s.52 9.58-8.27 9.58zM398.16 24.88V6.24s-14.65-.18-17.22 0-16.43-.89-16.25 17.85 15.54 17.84 15.54 17.84c19.44.35 17.93-17.05 17.93-17.05zm-15.45 10h-3.28s-7.64-.44-7.64-9v-3.3s-.35-9.5 8-9.5h11.19v12.25s.52 9.58-8.27 9.58zM106.81 11.57V.03h-6.86v6.15c-4.19 0-9 0-10.38.06-2.58.18-16.43-.89-16.28 17.85s15.57 17.84 15.57 17.84c19.44.35 17.93-17 17.93-17V11.57zM91.34 34.91h-3.28s-7.64-.44-7.64-9v-3.33s-.35-9.5 8-9.5h11.19v12.25s.52 9.58-8.27 9.58zM211.29 11.57V.03h-6.87v6.15c-4.19 0-9 0-10.38.06-2.58.18-16.42-.89-16.25 17.85s15.54 17.84 15.54 17.84c19.44.35 17.93-17 17.93-17V11.57zm-15.47 23.34h-3.28s-7.63-.44-7.63-9v-3.33s-.36-9.5 8-9.5h11.19v12.25s.51 9.58-8.28 9.58zM401.77 0h7.1v28.85s-.8 5.51 10.92 5.51v6.83s-9.32.62-14.82-4.17a12.59 12.59 0 01-3.2-8.35zM344.16 41.22h7.13V17.36s-.8-5.5 10.92-5.5V5.03s-9.32-.63-14.83 4.17a12.56 12.56 0 00-3.22 8.3zM111.29 41.22h7.1V17.36s-.8-5.5 10.92-5.5V5.03s-9.32-.63-14.82 4.17a12.54 12.54 0 00-3.2 8.3zM329.29 28.85V12.61h11V5.68h-11V.03h-7.1v28.64a12.59 12.59 0 003.2 8.35c5.5 4.79 14.82 4.17 14.82 4.17v-6.83c-11.67 0-10.92-5.51-10.92-5.51zM285.22 41.22h7v-20s-.27-8.52 9.76-8.52 9.77 7.73 9.77 9.15v19.37h6.92V21.69s1.16-16-16.73-16-16.73 16.51-16.73 16.51zM36.36 41.22h7v-20s-.26-8.52 9.77-8.52 9.76 7.73 9.76 9.15v19.37h6.93V21.69s1.15-16-16.74-16-16.72 16.53-16.72 16.53zM262.67 34.29s-6 .18-7.19-7.36h26.1v-4.18s1.59-17-17.05-17S248.2 23.5 248.2 23.5s-.71 14 10 17a17.59 17.59 0 004.44.8h18.94v-7.01zm2.26-21.79c9.54 0 9.46 7.54 9.46 7.54h-18.91s-.09-7.54 9.45-7.54zM167.51 12.01h7.01v29.92h-7.01zM167.51.03h7.01v8.08h-7.01zM246.6 6.15v7.35h-15.71s-9.06-.09-9.06 9.94 6.66 10.39 9.24 10.57 15.53 0 15.53 0v7.19H230s-15 1.06-15-17.76 17.29-17.29 17.29-17.29zM147.09 6.5c-11 0-16.75 7.16-16.75 16v4c0 8.83 5.66 16 16.75 16 11.48 0 16.74-7.16 16.74-16v-4c0-10.94-7.54-16-16.74-16zm9.67 19.19c0 5.41-1.79 9.79-9.68 9.79s-9.68-4.38-9.68-9.79v-2.43c0-5.41 2.46-9.79 9.68-9.79 6.1 0 9.68 3.1 9.68 9.79z"></path></g></svg>