<svg width="601" height="108" viewBox="0 0 601 108" xmlns="http://www.w3.org/2000/svg" class="mediaIcon_3-IUU"><g fill-rule="nonzero"><path d="M1 .9h104.6c.4 0 .7.3.7.7v104.6c0 .4-.3.7-.7.7H1c-.4 0-.7-.3-.7-.7V1.6c0-.4.3-.7.7-.7z"></path><path d="M87.6 47H60.2V19.7c0-.4-.3-.7-.7-.7H47.1c-.4 0-.7.3-.7.7V47H19c-.4 0-.7.3-.7.7v12.4c0 .4.3.7.7.7h27.3v27.3c0 .4.3.7.7.7h12.4c.4 0 .7-.3.7-.7V60.8h27.3c.4 0 .7-.3.7-.7V47.7c.2-.4-.1-.7-.5-.7zM20.9 65h8.9c1.4 0 2.6 1.1 2.6 2.6v5.3c0 1.4-1.1 2.6-2.6 2.6h-8.9c-1.4 0-2.6-1.1-2.6-2.6v-5.3c0-1.5 1.2-2.6 2.6-2.6zm0 13.5h19.4c1.4 0 2.6 1.1 2.6 2.6v5.3c0 1.4-1.1 2.6-2.6 2.6H20.9c-1.4 0-2.6-1.1-2.6-2.6v-5.3c0-1.5 1.2-2.6 2.6-2.6z" fill="#FFF"></path><path d="M156 44.8l-.7-.8c-3.2-3.5-7.8-5.4-12.5-5.1-11.3 0-20.2 9.8-20.2 22.3s8.9 22.3 20.2 22.3c4.7.3 9.3-1.6 12.5-5.1l.7-.8v4.7h12V21.9l-12 4.2v18.7zm-10.7 27.3c-6 .1-11-4.6-11.2-10.7-.1-6 4.6-11 10.7-11.2 6-.1 11 4.6 11.2 10.7v.3c.4 5.6-3.9 10.5-9.5 10.9h-1.2zm35.4-51.3c-4 0-7.3 3.3-7.3 7.3s3.3 7.3 7.3 7.3 7.3-3.3 7.3-7.3-3.3-7.3-7.3-7.3zm-6 19.3h12.1v42.2h-12.1V40.1zm70.9 0h12.1v42.2h-12.1V40.1zm31.2 27.2V51.7h7.1l4.5-11.6h-11.6V28.2L264.7 33v34.3c0 10.6 5.6 15.5 17.5 15.5 2.3 0 4.6-.2 6.9-.5l-5.6-10.9c-4.3 0-6.7-.1-6.7-4.1zm45.4-22.5l-.7-.8c-3.2-3.5-7.8-5.4-12.5-5.1-11.3 0-20.1 9.8-20.1 22.3s8.9 22.3 20.1 22.3c4.7.3 9.3-1.6 12.5-5.1l.7-.8v4.7h12.1V40.1h-12.1v4.7zm-10.6 27.3c-6 .1-11-4.6-11.2-10.7-.1-6 4.6-11 10.7-11.2 6-.1 11 4.6 11.2 10.7v.3c.4 5.6-3.9 10.5-9.5 10.9h-1.2zm29.2 10.1h12.1V20.4l-12.1 4.3v57.5zm35-54.4l-12.2 4.3-.1 7.9h-4.1v11.6h4.1v15.6c-.4 4.1.8 8.2 3.3 11.5 2.4 2.6 6.3 3.8 12.2 3.8 1.6 0 3.5-.1 5.4-.3V71.3c-1 .1-1.8.1-2.5.1-1.6.1-3.2-.2-4.6-.8-1.2-.7-1.9-2-1.8-3.4V51.6h8.9V40h-8.9l.3-12.2zm62.3 11.1c-11.9-.5-22 8.9-22.5 20.8v1.5c0 13.1 9.6 22.3 23.4 22.3 7.1.4 13.8-2.7 18.1-8.3l-9.6-5.5c-2.3 2.1-5.3 3.2-8.3 3.2-5.6 0-9.2-2.1-10.7-6.3l-.2-.6h30.8c.3-1.6.4-3.2.4-4.7.5-11.8-8.7-21.8-20.5-22.3-.3-.1-.6-.1-.9-.1zm-10 18.2l.1-.5c1.7-5.3 7.3-8.3 12.7-6.7 3.2 1 5.7 3.5 6.7 6.7l.1.5h-19.6zm62.8-18.2c-4.6-.3-9 1.6-12 5.1l-.8 1v-4.7L466 44.6v37.7h12.1V59.2c0-5.9 3.1-9.3 8.4-9.3 4.1-.3 7.7 2.9 7.9 7v25.3h12.1v-26c.1-12-7.8-17.3-15.6-17.3zm56 5.9l-.7-.8c-3.2-3.5-7.8-5.4-12.5-5.1-11.3 0-20.1 9.8-20.1 22.3s8.9 22.3 20.1 22.3c4.7.3 9.3-1.6 12.5-5.1l.7-.8v4.7H559V23l-12.1 4.3v17.5zm-10.7 27.3c-6 .1-11-4.6-11.2-10.7-.1-6 4.6-11 10.7-11.2 6-.1 11 4.6 11.2 10.7v.3c.4 5.6-3.9 10.5-9.5 10.9h-1.2zM419.7 39.2c-1.1-.2-2.3-.4-3.4-.4H416c-4.5-.3-8.8 1.5-11.8 4.8l-.7 1v-4.4h-.2V40l-12.1.5v41.7h12.3V59.1c0-5.8 2.9-9.1 8.1-9.3 1.7-4.1 4.5-7.8 8.1-10.6zm-193 5.6l-.7-.8c-3.2-3.5-7.8-5.4-12.5-5.1-11.3 0-20.1 9.8-20.1 22.3s8.9 22.3 20.1 22.3c4.6.2 9.1-1.5 12.3-4.9l.7-.8v7.9c-.1 5.7-4.8 10.3-10.5 10.2h-.2c-4.6.3-8.8-2.3-10.7-6.5l-.3-.9-10.8 3.9.3.9c3.5 8.8 12.1 14.5 21.6 14.2 13.1 0 23-9.4 23-21.8V40.1h-12.2v4.7zm-10.6 27.3c-6 .1-11-4.6-11.2-10.7-.1-6 4.6-11 10.7-11.2 6.1-.2 11 4.6 11.2 10.7v.3c.4 5.6-3.9 10.5-9.5 10.9h-1.2zm35.7-51.3c-4 0-7.3 3.3-7.3 7.3s3.3 7.3 7.3 7.3 7.3-3.3 7.3-7.3-3.2-7.3-7.3-7.3zM584.5 56c-3.6-1-6.5-1.7-6.5-3.8 0-1.8 1.5-2.8 4-2.8 1.9-.1 3.7.7 4.9 2.2l11.1-3.9.2-.1c-3.5-5.5-9.7-8.8-16.2-8.6-8.2 0-16.4 4.2-16.4 13.7 0 9.2 8.4 11.6 14.6 13.3 3.7 1 6.6 1.8 6.6 3.9 0 1.4-.9 3.1-5.1 3.1-2.5.2-5-1-6.5-3l-11.4 4h-.1c3.2 6.3 9.4 9.7 18 9.7 8.4 0 17.5-3.6 17.5-13.7 0-10.2-8.5-12.4-14.7-14zm3.3-29.8c.1-3.4 2.9-6.2 6.4-6.1 3.4.1 6.2 2.9 6.1 6.4-.1 3.4-2.8 6.1-6.2 6.1-3.4 0-6.2-2.7-6.2-6.2-.1-.1-.1-.2-.1-.2zm11.5 0c-.1-2.9-2.5-5.2-5.4-5.1-2.9.1-5.2 2.5-5.1 5.4.1 2.8 2.4 5.1 5.2 5.1 2.9 0 5.2-2.2 5.2-5.1.1-.2.1-.2.1-.3zm-7.5-3.6h2.4c1.2-.1 2.2.7 2.3 1.9v.3c0 1-.6 1.9-1.6 2.1l2 2.6h-1L594 27h-1.4v2.6h-.8v-7zm2.4 3.6c1 0 1.6-.4 1.6-1.4.1-.8-.5-1.4-1.2-1.5h-1.8v2.8l1.4.1z"></path></g></svg>