<svg xmlns="http://www.w3.org/2000/svg" viewBox="0 0 900 168" class="mediaIcon_3-IUU"><path d="M400.071 95.286c.857-2.77 1.644-5.269 2.403-7.776 5.555-18.365 11.105-36.731 16.657-55.097 1.766-5.842 3.642-11.654 5.245-17.54.567-2.083 1.582-2.594 3.581-2.589 26.36.053 52.719.036 79.079.036 12.149 0 24.298-.002 36.447.002 3.055.001 3.141.086 3.143 3.064.004 10.75.005 21.5.002 32.25-.001 2.818-.04 2.863-2.811 2.864-11.265.005-22.531.056-33.796-.046-2.17-.02-2.868.683-2.78 2.778.126 3.014.132 6.041-.002 9.054-.089 1.992.684 2.496 2.578 2.467 6.625-.102 13.254.031 19.879-.084 2.072-.036 2.655.677 2.636 2.675-.084 8.761-.083 17.524 0 26.285.019 2.005-.594 2.707-2.652 2.673-6.699-.11-13.401.006-20.1-.076-1.732-.021-2.368.548-2.329 2.276.081 3.606.117 7.219-.014 10.822-.075 2.057.677 2.669 2.691 2.656 11.191-.076 22.383-.04 33.575-.035 3.089.002 3.122.037 3.123 3.062.004 10.75.005 21.5.001 32.25-.001 2.766-.086 2.859-2.859 2.86-25.182.005-50.363.005-75.545.002-2.961 0-2.973-.014-2.973-2.929-.001-35.563.002-71.127.004-106.69v-2.355l-.61-.153c-.524 1.216-1.103 2.411-1.563 3.651a148115.871 148115.871 0 00-32.154 86.872 2223.74 2223.74 0 00-7.186 19.678c-.494 1.377-1.278 1.955-2.767 1.951a8154.89 8154.89 0 00-41.086-.005c-1.466.003-2.241-.527-2.755-1.943-10.736-29.575-21.512-59.135-32.287-88.696-5.437-14.915-10.892-29.823-16.331-44.737-.789-2.164-.621-2.432 1.667-2.433 27.611-.011 55.223-.003 82.834-.022 1.784-.001 2.514.276 1.853 2.417-3.34 10.818-6.508 21.689-9.719 32.546-.954 3.226-.928 3.233-4.34 3.233-3.902 0-7.805.038-11.707-.018-1.532-.022-2.011.581-1.605 2.012 3.993 14.073 7.983 28.147 11.979 42.22.016.056.098.096.594.568zM222.826 81.456l-.001 65.597c0 3.056-.003 3.064-3.031 3.065-12.737.003-25.473.004-38.21-.001-2.924-.001-2.93-.014-2.931-2.955-.002-15.387 0-30.774-.002-46.161 0-2.943-.005-2.946-2.872-2.947-4.933-.002-9.868.083-14.797-.042-1.977-.05-2.511.636-2.504 2.541.062 15.534.037 31.068.034 46.603-.001 2.949-.009 2.961-2.935 2.963-12.737.005-25.473.005-38.21-.001-2.809-.001-2.91-.101-2.91-2.809-.003-44.026-.003-88.052 0-132.078 0-2.737.164-2.905 2.858-2.906 16.271-.006 32.541-.005 48.812 0 2.72.001 2.85.132 2.851 2.894.007 10.822-.053 21.645.047 32.467.021 2.253-.696 3.043-2.917 2.852-1.9-.163-3.826-.003-5.739-.045-1.31-.029-1.871.541-1.861 1.846.028 3.534.03 7.068-.004 10.601-.011 1.166.365 1.794 1.634 1.788 5.595-.026 11.191-.047 16.786-.002 1.611.013 1.74-.909 1.735-2.14-.021-5.374-.008-10.749-.008-16.123 0-10.454.046-20.909-.039-31.363-.017-2.083.582-2.832 2.74-2.819 12.957.08 25.915.073 38.872.005 2.037-.011 2.643.675 2.638 2.69-.058 22.159-.036 44.319-.036 66.48zM674.365 149.834c-1.172.123-1.936.273-2.7.274-14.874.014-29.748-.011-44.622.043-1.681.006-2.702-.64-3.634-1.961-7.085-10.037-14.222-20.038-21.347-30.047-.401-.564-.843-1.099-1.745-1.523-.041.834-.118 1.668-.119 2.502-.009 9.425-.064 18.851.038 28.275.024 2.174-.734 2.769-2.809 2.758-12.886-.07-25.772-.086-38.658.011-2.297.017-2.83-.781-2.828-2.946.054-43.96.04-87.919.042-131.879 0-2.947.067-3.018 2.921-3.019 15.242-.005 30.486-.143 45.726.043 11.596.141 22.881 1.959 33.001 8.19 11.038 6.797 17.739 16.561 19.716 29.416 1.747 11.363.994 22.45-4.163 32.956-2.696 5.493-6.713 9.848-11.872 13.06-1.781 1.109-1.908 1.87-.763 3.557 10.786 15.885 21.495 31.822 32.222 47.748.48.709.912 1.45 1.594 2.542zm-74.371-88.309c0 3.604.033 7.209-.017 10.813-.019 1.357.557 1.932 1.853 1.74 1.598-.237 3.2-.478 4.773-.84 5.317-1.224 8.565-4.808 9.449-10.335.657-4.108-1.541-9.248-5.422-11.245-2.55-1.312-5.509-1.862-8.319-2.625-1.698-.461-2.384.373-2.344 2.121.078 3.455.023 6.914.027 10.371z"></path><path d="M780.716 101.332c0 11.042-.039 22.083.037 33.124.013 1.916-.682 3.143-2.173 4.246-9.792 7.244-20.87 11.407-32.752 13.458-10.233 1.766-20.516 1.924-30.698-.526-18.643-4.487-33.058-14.98-43.312-31.093-15.645-24.582-15.121-56.459 1.583-80.137 10.433-14.788 24.768-23.783 42.74-26.869 8.836-1.518 17.723-1.543 26.631-1.501 6.626.031 13.254.065 19.879-.033 1.86-.027 2.368.598 2.358 2.402-.066 12.075-.08 24.15.012 36.225.016 2.036-.719 2.454-2.564 2.435-9.718-.1-19.436-.121-29.154-.114-12.017.009-20.862 5.48-25.823 16.304-5.057 11.035-3.979 21.853 4.106 31.156 7.018 8.076 16.17 10.922 26.727 8.545 3.063-.69 3.358-1.239 3.357-4.43 0-1.693.005-3.387-.001-5.08-.01-2.744-.056-2.797-2.9-2.801-5.817-.007-11.635-.077-17.449.038-2.152.043-2.797-.724-2.775-2.822.09-8.687.089-17.376.001-26.064-.022-2.117.66-2.801 2.802-2.793 18.922.07 37.845.038 56.767.042 2.676.001 2.796.129 2.797 2.933.005 11.118.002 22.236.002 33.354l-.198.001zM232.18 81.142c0-21.864-.001-43.728.001-65.592 0-3.225.005-3.23 3.15-3.23 24.956-.001 49.911-.001 74.867.001 3.343 0 3.345.006 3.345 3.248.001 10.748-.054 21.496.046 32.243.02 2.166-.691 2.745-2.777 2.729-11.263-.085-22.527.011-33.789-.086-2.153-.018-2.85.669-2.756 2.774.14 3.159.09 6.331.016 9.494-.036 1.551.574 2.03 2.087 2.016 6.772-.061 13.547.05 20.317-.076 2.126-.04 2.575.762 2.557 2.695-.081 8.76-.086 17.521.003 26.28.02 1.99-.535 2.7-2.605 2.663-6.623-.116-13.251.025-19.875-.086-1.988-.033-2.557.663-2.497 2.551.113 3.53.138 7.07-.007 10.598-.087 2.11.756 2.622 2.717 2.61 11.116-.07 22.232-.037 33.348-.033 3.213.001 3.216.01 3.216 3.138.001 10.748-.065 21.497.053 32.243.025 2.313-.779 2.837-2.925 2.832-25.25-.058-50.501-.057-75.751-.001-2.091.005-2.789-.603-2.782-2.759.069-22.082.042-44.167.041-66.252zM788.77 81.271c0-21.867-.001-43.734.002-65.601 0-3.046.019-3.063 3.086-3.063 25.106-.002 50.213-.002 75.319.001 2.966 0 2.972.01 2.973 2.863.003 10.823-.053 21.647.048 32.469.019 2.078-.637 2.615-2.633 2.601-11.191-.081-22.382-.04-33.573-.039-2.997 0-3 .005-3.004 3.088-.004 2.871.092 5.747-.034 8.613-.083 1.898.514 2.581 2.492 2.55 6.698-.106 13.4.01 20.099-.074 1.739-.022 2.285.546 2.273 2.268-.065 8.982-.069 17.965.003 26.947.015 1.806-.521 2.431-2.38 2.405-6.699-.096-13.4.019-20.099-.074-1.86-.026-2.436.619-2.385 2.419.103 3.605.12 7.218-.005 10.821-.068 1.974.69 2.522 2.576 2.511 11.191-.065 22.382-.035 33.573-.03 3.046.001 3.049.012 3.05 3.019.002 10.897-.045 21.794.042 32.69.016 1.971-.621 2.504-2.528 2.5-25.401-.051-50.802-.054-76.203.005-2.177.005-2.734-.782-2.728-2.845.059-22.016.037-44.03.036-66.044zM105.106 81.377c0 21.867.001 43.735-.001 65.602 0 3.132-.005 3.138-3.188 3.139-12.664.003-25.328.004-37.992 0-2.87-.001-2.941-.075-2.941-3.003-.003-31.071-.001-62.142-.002-93.212 0-3.4-.002-3.401-3.371-3.401-6.7-.001-13.401-.049-20.1.031-1.751.021-2.265-.572-2.255-2.293.063-11.191.067-22.383-.002-33.574-.012-1.878.683-2.376 2.455-2.373 21.646.043 43.293.056 64.939-.016 2.249-.007 2.484 1.022 2.481 2.834-.035 22.089-.023 44.178-.023 66.266z"></path></svg>