<svg xmlns="http://www.w3.org/2000/svg" viewBox="-320.1 474 273 78" class="mediaIcon_3-IUU"><path d="M-266.7 474.6c-5.6-.1-10.7 1.3-15 5.1-3.2 2.8-5.2 6.1-5.7 10.3-.2.5-.1.9-.1 1.4v59.1c0 .5-.1 1 .1 1.4h12.3c.3-.5.2-1 .2-1.5v-32.8c0-.5-.1-1.1.1-1.5 2.6-.2 5.3-.1 7.9 0 .4-.1.3-.5.3-.7v-11.1c0-.3.1-.6-.3-.7-2.6.1-5.3.1-7.9 0-.3-4.2-.2-8.3 0-12.5 0-.3 0-.5.2-.8 1.2-1.9 3-2.8 5.2-3.1.5-.2 1.1-.2 1.7-.1.9.1 1.2-.3 1.1-1.1-.1-1.3 0-2.6 0-3.8-.1-2.6.2-5.1-.1-7.6zM-114 517.7c-.4-.7-.4-1.2 0-1.9 1.8-2.8 3.5-5.6 5.2-8.4 2.5-4 5-8.1 7.5-12.1 0-.2-.1-.4-.3-.4-3.3 0-6.5-.2-9.8.1-.7 1.2-1.5 2.4-2.2 3.5-2.7 4.5-5.5 8.9-8.2 13.4-.7-.3-.4-.9-.4-1.3V492v-14.3c0-1.2-.3-1.5-1.5-1.4-1.9.1-3.8.1-5.7 0-1.2-.1-1.5.4-1.5 1.5v61.7c0 .5-.2 1 .2 1.4h8.2c.4-.5.2-1 .2-1.5V523c0-.4-.4-1.1.4-1.3.4.8.8 1.7 1.3 2.4 1.8 2.8 3.4 5.8 5 8.6 1.5 2.5 2.9 5.1 4.3 7.6.2.4.5.5.9.5h9.2l.1-.2c-4.1-7.7-8.5-15.3-12.9-22.9zM-228 540.2zM-201.5 506.5c0-.4.1-.9-.1-1.3-.9-3-2.2-5.7-4.9-7.6-1.7-1.2-3.5-1.7-5.4-2.2-1.9-.2-3.9-.1-5.9-.1-1.2 0-1.5-.4-1.5-1.5.1-5.3 0-10.7.1-16 0-1.2-.4-1.5-1.5-1.4-2 .1-4 .1-6 0-1.2-.1-1.5.4-1.5 1.5v60.9c0 .4-.2.9.2 1.3 2.8.3 5.7.3 8.5 0 .3-.5.2-1 .2-1.5v-33c0-.5-.1-1 .1-1.5 1.6 0 3.2-.1 4.8-.1 2 0 3.6.6 4.1 2.8.2.5.1 1 .1 1.6v30.4c0 1.5 0 1.5 1.6 1.5 1.9 0 3.7-.1 5.6 0 1.2.1 1.5-.4 1.5-1.5v-32.3zM-219.4 540.2c-.1 0-.1 0 0 0zM-307.9 476.4c-3.7 0-7.3.1-11 0-.9 0-1.2.3-1.2 1.2v64c.3.3.7.2 1.1.2h10c1.1 0 1.4-.3 1.4-1.4v-63c0-.3.3-.8-.3-1zM-146.2 509.8c0 .1.1.3.2.4 1.1 0 2.3.1 3.4.1h5.2v-4c-.3-.5.1-1.1-.3-1.6-.8-2.3-1.8-4.5-3.6-6.3-2.1-2.1-4.7-3.2-7.6-3.8-1-.2-1.9-.2-2.9 0-.6.1-1.2.2-1.8.4-5.3 1.1-9.2 5.8-9.7 10.8-.1.3-.1.6-.1.8v23c0 .3 0 .6.1.8.5 5.2 5 10.1 10.6 10.9 1.5.2 3.1.2 4.6 0 2.7-.8 5.1-1.9 7.1-4.1 1.6-1.7 2.5-3.8 3.2-6 .3-.5 0-1 .2-1.5v-1.8c-2.9 0-5.8.1-8.6.1-.2.5.1 1.1-.2 1.6-.7 1.4-1.5 2.8-3.4 3.1-.5.1-1.1.2-1.6 0-1.9-.3-3.3-1.7-3.4-3.5-.1-.9 0-1.9 0-2.9v-18.7c0-2.1 1.1-3.6 2.8-4.2 2.1-.8 4.9.5 5.6 2.9.2.3.1.6.1 1 0 .3 0 .7-.1 1.1v1.4zM-292.1 494.2h-9.9c-1.1 0-1.4.2-1.4 1.3.1 6.5 0 13.1 0 19.6v25.3c0 .9.1 1.4 1.2 1.3 3.4-.1 6.9 0 10.3 0 .3 0 .7.1.9-.2v-47.2c-.2-.2-.6 0-1.1-.1zM-47.1 495.4c0-.8-.2-1-1-1-2 0-4.1 0-6.1-.1-.6.3-1.2 0-1.8.2-.3.1-.6.2-1 .3-6 1.1-10.8 6.9-10.8 13.3.1 10.5 0 21 0 31.5 0 .8.2 1.1 1.1 1h7.5c.4-.5.2-1 .2-1.5v-30.2c0-.6-.1-1.1.1-1.7.2-2.2 1.9-3.8 4.3-4.2.6-.3 1.2-.1 1.8-.1 1.9-.1 3.8.2 5.7-.2 0-2.2-.1-4.8 0-7.3zM-295.7 480.9c-.9-.2-1.7-.2-2.6 0-2.8.7-4.7 2.2-5.2 5.2-.2.8-.2 1.5 0 2.3.1 2.3 2.4 4.8 5.2 5.2.9.2 1.7.2 2.6 0 2.4-.7 3.9-2.3 4.9-4.6.2-1.1.2-2.3 0-3.4-.9-2.4-2.5-4-4.9-4.7zM-233.2 506.2c-.3-.5.1-1-.3-1.5l-.3-.6c-.9-3.2-2.6-5.8-5.2-7.9-1.9-1.5-4-2.3-6.3-3-.5-.3-1.1 0-1.5-.2h-2.7c-.5.3-1 0-1.5.2-.5.1-1.1.3-1.6.4-5.7 1.5-9.8 6.8-10.4 12.2-.1.2-.1.5-.1.7v22.4c0 .2 0 .5.1.7.2 2.4 1.2 4.6 2.5 6.5 2.3 3.3 5.5 5.4 9.5 6.1.5.3 1.1 0 1.6.2 3.4 0 6.9-.1 10.3 0 1.1 0 1.5-.2 1.5-1.4-.1-3.2-.1-6.5 0-9.7 0-1.1-.3-1.4-1.4-1.4-3 .1-5.9 0-8.9 0-2 0-2.9-.8-2.9-2.8 0-.9 0-1.8.1-2.7.5-.3 1-.1 1.5-.1 3.3-.1 6.6.1 9.9-.1 3.3-.6 5.3-2.5 6-5.8.2-3.9.2-7.8 0-11.8.1-.1.1-.2.1-.4zm-12.4 5c0 .5-.3.6-.8.6h-1.9c-2.5 0-2.5 0-2.5-2.5v-1.4c.1-1.4 1.1-2.5 2.4-2.5 1.2-.1 2.4.9 2.6 2.2.3 1.2.2 2.4.2 3.6zM-169.7 508.3c0-.3.1-.7-.1-1-.1-.3-.2-.6-.3-1-.9-5.1-3.5-8.7-8.6-10.3-4.7-.2-9.4-.1-14.1-.1-.1 0-.1.1-.2.2 0 2.5.1 5 0 7.4 0 .8.2 1 1 1h9.6c2.1 0 3.4.5 4 2.8.2.8 0 1.6.1 2.4.1.8-.2 1.1-1 1.1-1.8 0-3.6-.1-5.4.1-.7.1-1.4.2-2.1.4-4.9 1.1-8.2 4.1-9.1 8.2-.3 1.2-.1 2.5-.1 3.7 0 3.5-.2 6.9.1 10.4.1 1.4.8 2.6 1.6 3.6 2.3 2.9 5.3 4.6 9 5 1.5.2 3.1.2 4.6 0 5.3-1.1 9.5-3.5 10.9-9.2.2-.3.1-.7.1-1v-23.7zm-9.9 24.7c-2.2 1.2-4.5 1.2-6.7 0-.9-.5-1.4-1.3-1.4-2.4.1-2.5.1-5.1 0-7.6-.1-1.6.7-2.5 2.1-3 2.3-.9 4.7-.5 7.1-.5.6 0 .5.5.5.8v5.3c0 1.6-.1 3.2 0 4.9-.1 1.2-.6 2-1.6 2.5zM-76.8 499.3c-3-3.2-6.7-4.5-11-4.4-.5.3-1 0-1.5.2-.4.1-.7.2-1.1.4-5 1.5-8 4.9-9 10-.2.5 0 1.1-.2 1.6v22.3c.2.5 0 1.1.2 1.6v.8c1.8 5.1 5 8.6 10.6 9.5 2.3.3 4.6.1 6.9.1 1.3 0 2.6.2 3.9-.2V533c-.5-.4-1-.2-1.5-.2-2.7-.1-5.3.2-8-.1-2-.3-3.1-1.4-3.4-3.3-.2-2.3-.2-4.7 0-7 3.9-.3 7.7-.1 11.6-.1 2.6 0 4.6-.8 5.6-3.3.3-4.3.2-8.6 0-12.9-.4-2.5-1.3-4.8-3.1-6.8zm-6.2 14.5c-1.2-.1-2.4 0-3.6 0H-90c-.7 0-1-.1-1-.9.1-1.6 0-3.2 0-4.9.1-2.6 2-4.5 4.5-4.5 2.4 0 4.4 1.9 4.5 4.5.1 1.6 0 3.2 0 4.9 0 .7-.2 1-1 .9z"></path></svg>