<svg xmlns="http://www.w3.org/2000/svg" viewBox="0 0 203.883 68" class="mediaIcon_3-IUU"><path d="M148.111 34.556h-17.553V18.741h-4.838v37.244h4.838V39.394h17.553v16.591h4.838V18.741h-4.838zM82.803 18.741h-4.839L61.88 39.213V18.741h-4.838v37.244h4.838V45.372l6.392-8.135 11.355 18.748h4.838L71.004 33.759zM31.008 45.307L19.786 18.741h-4.838v37.244h4.838v-25.79l8.74 20.691h4.839l9.461-21.268v26.367h4.838V18.741h-4.838zM111.692 37.049c2.795-1.771 4.66-4.883 4.66-8.429 0-5.503-4.478-9.981-9.981-9.981H92.124v37.346h15.189c5.504 0 9.981-4.478 9.981-9.98.001-3.932-2.29-7.33-5.602-8.956zm-5.321-14.41c3.298 0 5.981 2.683 5.981 5.981s-2.684 5.98-5.981 5.98h-9.408V22.639h9.408zm.943 29.346h-10.35V40.024h10.35c3.298 0 5.981 2.683 5.981 5.981s-2.684 5.98-5.981 5.98zM174.867 18.741h-12.346v37.245h2.641v.006h9.705c7.671 0 13.911-6.24 13.911-13.911V32.76c.001-7.671-6.24-14.019-13.911-14.019zm8.912 23.339c0 4.914-3.997 8.911-8.911 8.911h-7.508V23.848h7.508c4.914 0 8.911 3.998 8.911 8.911v9.321z"></path></svg>