<svg xmlns="http://www.w3.org/2000/svg" viewBox="0 0 500 219" class="mediaIcon_3-IUU"><path class="muo_svg__st0" d="M70.616 4.668H447.85c-4.77 27.076-9.369 53.356-14.035 79.624-5.907 33.258-11.916 66.498-17.777 99.764-1.782 10.118-1.624 10.145 12.94 30.143H52.789c2.938-17.077 5.797-34.227 8.85-51.343 7.847-43.992 15.915-87.947 23.446-131.993.663-3.876-1.196-8.747-3.252-12.381-2.536-4.485-6.506-8.158-11.217-13.814zm4.561 190.982c6.018 0 10.525-.545 14.852.107 10.86 1.637 15.25-2.402 16.992-13.595 5.735-36.849 12.7-73.506 19.171-110.24 2.811-15.956 3.353-16.328 21.202-12.65L123.603 195.62c7.473 0 13.69-.326 19.857.088 6.787.455 9.717-1.65 10.946-8.995 6.384-38.163 13.571-76.191 20.284-114.301 2.891-16.412 3.954-17.28 21.156-12.857L172.054 195.7c7.139 0 12.713-.402 18.205.095 8.165.739 11.544-2.051 12.897-10.7 4.731-30.238 10.553-60.305 15.894-90.449 4.098-23.126 8.098-46.27 12.215-69.828-2.688-.645-4.317-1.374-5.948-1.378-37.343-.085-74.687-.004-112.029-.196-6.295-.032-8.391 2.739-9.379 8.604-5.26 31.232-10.904 62.399-16.4 93.591-4.01 22.77-7.999 45.544-12.332 70.211zm319.769-.596l30.332-171.73c-23.243 0-44.677.416-66.081-.201-8.803-.254-12.227 2.52-13.691 11.299-7.177 43.031-15.031 85.949-22.598 128.915-1.808 10.268-3.435 20.568-5.289 31.718l77.327-.001zm-174.463.639c23.736 0 45.549-.274 67.35.145 7.9.152 10.852-2.52 12.172-10.459 6.468-38.886 13.683-77.648 20.537-116.471 2.594-14.694 4.924-29.434 7.616-45.603-5.83 0-9.637.01-13.445-.002-15.272-.049-15.255-.049-17.851 14.599-6.512 36.741-12.977 73.49-19.594 110.212-2.601 14.437-6.016 16.127-21.094 10.667l23.788-135.449c-6.016 0-10.549.542-14.904-.107-10.92-1.627-15.246 2.513-16.928 13.703-4.705 31.307-10.825 62.4-16.325 93.588-3.717 21.068-7.327 42.152-11.322 65.177z"></path><path class="muo_svg__st0" d="M389.741 58.901c-5.665 32.408-10.784 64.212-16.968 95.807-2.433 12.429-12.438 3.843-20.247 6.938 4.037-23.162 7.658-44.138 11.363-65.099 1.462-8.276 3.062-16.528 4.681-24.775 3.049-15.526 3.074-15.521 21.171-12.871z"></path></svg>