<svg xmlns="http://www.w3.org/2000/svg" width="181.625" height="40.003" viewBox="0 0 181.625 40.003" class="mediaIcon_3-IUU"><g data-name="White - Logo"><g data-name="Layer 1"><path data-name="Artwork 1" d="M90.113 15.545a1.116 1.116 0 01.813-.329 1.136 1.136 0 011.139 1.139v7.241a1.136 1.136 0 01-1.139 1.139 1.116 1.116 0 01-.813-.329 1.089 1.089 0 01-.329-.806v-7.242a1.089 1.089 0 01.329-.806zm-9.1-.112v4.233h1.2a1.093 1.093 0 00.806-.329 1.116 1.116 0 00.329-.813v-1.939a1.011 1.011 0 00-1.139-1.149zm-8.762 0v9.216h1.2a1.066 1.066 0 00.8-.329 1.132 1.132 0 00.329-.806v-6.913a1.116 1.116 0 00-.329-.813 1.08 1.08 0 00-.8-.329zm-18.161 6.2h1.478l-.737-5.213zm49.073-6.211v9.216h1.2a1.066 1.066 0 00.8-.329 1.132 1.132 0 00.329-.806v-6.915a1.116 1.116 0 00-.329-.813 1.08 1.08 0 00-.8-.329zM51.221 26.61h2.077l.484-3.038h2.083l.467 3.038h2.1l-2.215-13.215h-2.745zm27.8 0h1.995v-4.973h1.317l1.208 4.98h2.156l-1.478-5.773a3.09 3.09 0 001.066-2.373v-1.919a3.338 3.338 0 00-.685-2.238 3.04 3.04 0 00-2.449-.918h-3.143zm17.632 0h1.995V13.396h-1.995zm-30.915-4.331l-2.637-8.887h-2.238v13.23h1.995v-8.477l2.745 8.475h2.143V13.386h-1.995zm4.519 4.341H73.4a3 3 0 002.215-.928 3.068 3.068 0 00.918-2.238v-6.912a3.064 3.064 0 00-.912-2.228 3 3 0 00-2.222-.928h-3.133zm30.915 0h3.133a3 3 0 002.215-.928 3.068 3.068 0 00.918-2.238v-6.912a3.064 3.064 0 00-.912-2.228 3 3 0 00-2.222-.928h-3.133zm-12.428-.77a3.025 3.025 0 002.238.928 3.163 3.163 0 003.153-3.166v-7.218a3.162 3.162 0 10-6.323 0v7.218a3.067 3.067 0 00.918 2.238zm21.69-14.515a1.843 1.843 0 011.843 1.843v13.649a1.843 1.843 0 01-1.843 1.843h-62.19a1.843 1.843 0 01-1.843-1.843V13.165a1.843 1.843 0 011.843-1.843z"></path><path data-name="Path 2" d="M119.383 21.516h1.478l-.727-5.21zm2.12-8.227l2.21 13.216h-2.1l-.467-3.038h-2.083l-.484 3.038h-2.066l2.248-13.216zm7.531 0v10.2a1.136 1.136 0 01-1.139 1.139 1.116 1.116 0 01-.813-.329 1.089 1.089 0 01-.329-.806V13.289h-1.952v10.21a3.133 3.133 0 003.153 3.143 3.084 3.084 0 002.238-.908 3.005 3.005 0 00.928-2.238V13.274zm3.374 0v2h2.12v11.2h1.995V15.282h2.11v-2.008zm11.931 0v5.6h-2.406v-5.615h-1.995v13.222h1.995v-5.6h2.406v5.6h1.995V13.274zm5.747 10.986a1.116 1.116 0 00.813.329 1.136 1.136 0 001.139-1.139v-7.242a1.136 1.136 0 00-1.139-1.139 1.116 1.116 0 00-.813.329 1.09 1.09 0 00-.329.806v7.241a1.089 1.089 0 00.329.806zm-1.363-10.246a3.16 3.16 0 015.39 2.24v7.22a3.16 3.16 0 11-6.319 0v-7.216a3.045 3.045 0 01.928-2.241zm8.85 5.513h1.2a1.09 1.09 0 00.806-.329 1.116 1.116 0 00.329-.813v-1.943a1.011 1.011 0 00-1.139-1.149h-1.2zm1.148-6.253a3.046 3.046 0 012.449.918 3.334 3.334 0 01.685 2.235v1.917a3.091 3.091 0 01-1.06 2.376l1.468 5.76h-2.156l-1.2-4.98h-1.317v4.98h-2.008V13.274zm4.96 13.208h1.995V13.274h-1.995zm3.291-13.218v2h2.12v11.217h1.995V15.282h2.11v-2.008zm12.438 0l-1.468 4.746-1.465-4.759h-2.2l2.669 7.692v5.539h1.995v-5.541l2.679-7.692z"></path><path data-name="Path 3" d="M31.086 18.536a2.633 2.633 0 01-1.432.2c-1.2-.2-3-2.867-2.729-4.305.191-1.02 2-1.007 2-1.007a9.186 9.186 0 00-4-3.416l.708-2.729-.194-.125-1.412 2.492a11.368 11.368 0 00-3.982-.592 11.168 11.168 0 00-2.284.28l-2.565-3.206-.2.2 1.487 3.38a10.1 10.1 0 00-6.461 9.565c8.087-1.53 19.057 1.083 21.242 2.3a9.216 9.216 0 00-.178-3.037zm-10.772-.576c-2.962-.346-3.308-2.245-3.291-3.2.049-2.366 1.448-2.61 2.962-2.613 1.9 0 4.509.477 5.2 1.856.727 1.466-2.613 4.224-4.871 3.957z"></path><path data-name="Path 4" d="M20 40a20 20 0 1120-20 20 20 0 01-20 20zm-8.538-3.969a11 11 0 001.007.5l.072.036.165.072.161.069.142.059.079-.016A48.352 48.352 0 0119 35.876l.4-.033a52.95 52.95 0 014.052-.171h.4c.922 0 1.846.026 2.745.069.29 0 .583.03.875.049.425.026.852.059 1.28.1h.063l.056-.023.066-.033.392-.227c.142-.082.283-.171.425-.263s.313-.2.464-.306l.109-.072.576-.4-.7-.072a62.798 62.798 0 00-6.175-.347h-.4a52.17 52.17 0 00-4.081.161c-.388.026-.78.059-1.168.1l-.293.033a49.394 49.394 0 00-6.254 1.047 4.652 4.652 0 00-.866-3l1.84-.51.1-.049a3.044 3.044 0 001.129-1.112 5.233 5.233 0 00.6-3.479 6.453 6.453 0 00-1.116-3.156 2.633 2.633 0 00-2.077-1.132 2.323 2.323 0 00-.247 0l-.4.056v-.138a31.564 31.564 0 017.241-.727A41.54 41.54 0 0130.938 24.2a74.837 74.837 0 011.112 8.824l.036.53.388-.365c.286-.27.566-.55.833-.839l.076-.082v-.109a75.282 75.282 0 00-.658-5.75 12.125 12.125 0 012.7 1.5c.148.109.29.217.421.329l.244.194.138-.276A17.944 17.944 0 0038.179 20 18.165 18.165 0 103.62 27.818l.138.29.25-.2a15.471 15.471 0 017.359-3.41h.089c.658 0 1.534.793 1.81 3.028s-.8 3-.964 3.084l-2.449.681a4.636 4.636 0 00-1.616-.945H8.2l-.477.039.3.372c2.7 3.291 2.439 4.43 2.426 4.476l-.049.184.161.1c.276.168.527.313.77.444h.026l.069.033z"></path></g></g></svg>